<?xml version="1.0" encoding="iso-8859-1"?>
<!-- Uploaded to: SVG Repo, www.svgrepo.com, Generator: SVG Repo Mixer Tools -->
<svg height="800px" width="800px" version="1.1" id="Layer_1" xmlns="http://www.w3.org/2000/svg" xmlns:xlink="http://www.w3.org/1999/xlink" 
	 viewBox="0 0 440.288 440.288" xml:space="preserve">
<g transform="translate(0 -1020.36)">
	<g shape-rendering="auto" image-rendering="auto" color-rendering="auto" color-interpolation="sRGB">
		<path style="fill:#464C63;" d="M41.857,1027.664c-1.232,0.16-2.494,0.368-3.781,0.88c-8.714,3.392-12.331,12.022-13.531,19.53
			c-1.2,7.51-0.544,15.115,0.688,21.25c1.973,9.832,8.722,17.76,14.656,24.469c3.81,4.307,5.266,5.477,7.406,7.5v0.16
			c-0.551,0-1.096,0.16-1.626,0.305l-9.437,2.721c-14.381,4.178-26.146,14.588-32.062,28.342l-3.251,7.469
			c-3.701,8.605,4.366,18.627,13.563,16.846l30.406-5.906l3.032,4.563c4.389,6.582,5.25,14.898,2.312,22.25l-1.718,4.344
			c-5.669,14.174-8.594,29.297-8.594,44.563v0.16c0.014,0.721,0.176,1.439,0.368,2.125c1.774,49.148,30.459,93.438,74.968,114.656
			l23.938,11.969l26.406,26.406c4.498,4.5,10.608,7.031,16.97,7.031h15.469c9.074-0.002,17.411-5.166,21.469-13.281l2.749-5.469
			c4.072-8.146,12.362-13.25,21.469-13.25h12.845c12.146,0,23.63-5.547,31.218-15.031l27.689-28.088
			c6.666-8.332-5.832-18.332-12.499-10l-27.689,28.088c-4.558,5.697-11.421,9.031-18.718,9.031h-12.845
			c-15.134-0.002-29.013,8.557-35.781,22.094l-2.75,5.469c-1.36,2.727-4.107,4.438-7.155,4.438h-15.469
			c-2.125,0-4.155-0.848-5.658-2.344l-27.312-27.313c-0.608-0.607-1.312-1.119-2.093-1.504l-25.219-12.623h-0.192
			c-39.73-18.938-65.323-58.658-66.187-102.656c0-0.848,0.16-1.686,0.16-2.531l25-24.719l18.531,12.342
			c3.171,2.117,7.395,1.695,10.094-0.992l20.906-20.938l34.563,6.906c8.907,8.662,20.731,14.027,33.469,15.281
			c5.13,0.623,3.464,0.688,7.282,0.496c19.93-1.008,29.406-8.234,38.28-17.688l41.907-46.094c0,0,0.16-0.191,0.192-0.256
			c12.053-14.199,29.517-22.623,48.125-23.313c31.68,0,60.187,19.002,72.374,48.25l17.845,42.783
			c3.814,10.518,19.546,3.951,14.749-6.156l-17.811-42.781c-13.778-33.854-40.509-56.354-87.475-58.125
			c-23.179,0.783-44.96,11.318-59.97,29l-41.75,45.906c-7.568,8.324-18.283,13.041-29.531,13.063
			c-14.109-0.352-26.848-8.396-33.218-21c0,0,0-0.16-0.224-0.16l-36.906-69.188c-2.61-4.895-5.918-9.244-9.72-13.063
			c1.723-1.199,3.358-2.244,5.314-3.813c6.226-4.998,13.712-10.873,15.344-21c1.264-7.824-0.16-16.172-3.531-23.688
			c-3.398-7.516-9.136-14.677-18.064-17.063c-5.203-1.392-9.682,0.192-13.28,2.063c-3.597,1.867-6.686,4.306-9.376,6.719
			c-1.072,0.96-0.912,1.04-1.843,1.97c-1.734-2.28-3.768-4.652-6.344-6.75c-2.597-2.118-5.92-4.281-10.626-4.281
			c-4.706,0-8.058,2.163-10.656,4.281c-2.525,2.058-4.506,4.387-6.218,6.626c-0.992-1.024-0.848-1.104-2-2.157
			c-2.725-2.493-5.83-5.01-9.531-6.875c-3.31-2.103-7.429-2.373-10.114-2.246L41.857,1027.664z M43.577,1043.602
			c0.843,0.352,0.986,0.496,1.248,0.623c1.568,0.783,3.822,2.469,5.906,4.375c4.165,3.811,7.563,8.188,7.563,8.188
			c1.309,2.271,5.92,3.252,7.81,2.896c2.413-0.447,4.485-1.98,5.624-4.154c0,0,1.843-3.475,4.376-6.813
			c1.264-1.668,2.696-3.236,3.749-4.094c0.512-0.527,0.879,0,1.056,0c1.056,0.863,2.485,2.426,3.75,4.094
			c2.534,3.338,4.376,6.813,4.376,6.813c1.742,3.098,3.039,3.9,6.376,4.279c2.696,0.24,5.33-0.896,7-3.031
			c0,0,3.285-4.152,7.437-7.875c2.075-1.861,4.368-3.527,6.064-4.406c1.693-0.881,2.435-0.672,1.811-0.848
			c2.427,0.656,5.51,3.541,7.626,8.219c2.115,4.678,2.902,10.678,2.282,14.531c-0.16,0.943-4.442,6.955-9.594,11.094
			c-4.546,3.648-7.989,5.631-8.97,6.217c-8.635-4.504-15.468-5.752-25.334-5.199c-10.777,0.16-18.148,4.094-26.072,10.414
			c-1.926-1.861-2.794-2.529-5.781-5.906c-5.238-5.922-10.336-13.898-10.97-17.031c-0.912-4.557-1.344-10.855-0.592-15.563
			c0.487-3.074,1.437-5.914,3.259-6.824V1043.602z M40.326,1119.914c-0.598,5.883-0.378,10.555-0.464,16.004l-21.499,4.154
			l0.4-0.992c3.99-9.279,11.899-16.252,21.562-19.154L40.326,1119.914z"/>
		<path style="fill:#FFB900;" d="M83.702,1093.537c14.486,0.271,27.757,8.148,34.594,20.969l33.875,63.531l-22.688-4.531
			c-0.512-0.16-1.056-0.16-1.6-0.16l0,0c-2.11,0.008-4.131,0.848-5.624,2.344l-19.314,19.313l-18.499-12.344
			c-3.171-2.117-7.395-1.693-10.094,0.992l-14.28,14.156c0.944-3.221,2.03-6.406,3.28-9.531l1.72-4.344
			c4.89-12.223,3.427-26.111-3.875-37.063l-5.314-7.969C52.9,1104.664,66.272,1093.277,83.702,1093.537z"/>
	</g>
	<g>
		<path style="fill:#464C63;" d="M71.934,1117.352c0,4.418,3.582,8,8,8s8-3.582,8-8s-3.582-8-8-8S71.934,1112.934,71.934,1117.352z"
			/>
		<g shape-rendering="auto" image-rendering="auto" color-rendering="auto" color-interpolation="sRGB">
			<path style="fill:#464C63;" d="M191.375,1373.365c-4.407,0.316-7.725,4.145-7.409,8.553c0.058,0.807,0.238,1.6,0.534,2.354
				l19.907,53.094h-28.376c-4.418-0.063-8.051,3.469-8.113,7.887s3.469,8.051,7.887,8.113c0.075,0.002,0.151,0.002,0.226,0h39.907
				c4.419,0.004,8.005-3.574,8.01-7.992c0.001-0.963-0.172-1.918-0.51-2.82l-23.938-63.906c-1.214-3.387-4.538-5.547-8.125-5.279
				L191.375,1373.365z"/>
			<path style="fill:#464C63;" d="M159.657,1357.365c-3.207,0.113-6.036,2.131-7.187,5.125l-29.344,73.406l-25.125-6.281
				c-4.23-1.277-8.695,1.117-9.971,5.348c-1.277,4.23,1.118,8.695,5.348,9.971c0.236,0.072,0.476,0.133,0.717,0.182l31.936,8
				c3.881,0.975,7.886-1.066,9.376-4.781l31.906-79.906c1.693-4.082-0.242-8.764-4.324-10.457
				C161.934,1357.533,160.798,1357.328,159.657,1357.365L159.657,1357.365z"/>
			<path style="fill:#464C63;" d="M351.907,1149.27c-4.419-0.037-8.03,3.516-8.067,7.934c-0.02,2.455,1.087,4.783,3.005,6.316
				c0,0,5.702,4.725,12.469,11c6.768,6.275,14.619,14.32,18,19.314c10.834,16.002,18.934,34.383,22.782,53.125
				c1.008,4.955,1.168,14.855,0.848,22.969s-0.976,14.625-0.976,14.625c-0.452,4.4,2.748,8.334,7.148,8.785
				c4.4,0.453,8.334-2.746,8.786-7.146c0.001-0.014,0.003-0.025,0.004-0.039c0,0,0.688-6.941,1.024-15.563
				c0.352-8.621,0.512-18.738-1.152-26.844c-4.32-21.047-13.282-41.242-25.219-58.875c-5.077-7.498-13.256-15.461-20.374-22.063
				c-7.12-6.602-13.157-11.625-13.157-11.625c-1.431-1.217-3.246-1.893-5.125-1.906L351.907,1149.27z"/>
			<path style="fill:#464C63;" d="M327.844,1181.27c-4.419-0.006-8.006,3.57-8.012,7.99c-0.003,2.453,1.119,4.771,3.044,6.291
				c0,0,5.757,4.715,12.531,10.969c6.774,6.252,14.578,14.297,17.843,19.252c7.258,11.006,12.283,23.961,14.813,37.094
				c1.472,7.68,1.619,21.594,1.184,33.063c-0.432,11.469-1.28,20.688-1.28,20.688c-0.407,4.4,2.831,8.299,7.232,8.705
				c4.401,0.406,8.298-2.832,8.705-7.232c0,0,0.896-9.615,1.344-21.563c0.448-11.949,0.576-26.037-1.472-36.686
				c-2.901-15.068-8.603-29.906-17.157-42.875c-5.037-7.641-13.226-15.621-20.374-22.219s-13.25-11.563-13.25-11.563
				c-1.44-1.225-3.267-1.9-5.157-1.906L327.844,1181.27z"/>
			<path style="fill:#464C63;" d="M304.001,1213.27c-4.418-0.078-8.062,3.441-8.14,7.859c-0.043,2.43,1.021,4.746,2.89,6.297
				c0,0,17.57,15.494,22.686,22.594c6.669,9.252,12.354,19.141,14.72,29.154c1.722,7.297,1.928,21.188,1.408,32.625
				c-0.528,11.438-1.6,20.656-1.6,20.656c-0.528,4.389,2.601,8.373,6.989,8.902c4.388,0.527,8.374-2.602,8.902-6.988
				c0.005-0.045,0.01-0.088,0.015-0.131c0,0,1.104-9.701,1.656-21.721c0.544-12.02,0.752-26.127-1.813-37
				c-3.115-13.197-10.003-24.744-17.28-34.844c-8.115-11.256-25.314-25.406-25.314-25.406c-1.418-1.252-3.234-1.961-5.125-2
				L304.001,1213.27z"/>
			<path style="fill:#464C63;" d="M295.313,1269.27c-4.408,0.309-7.731,4.133-7.421,8.541c0.093,1.33,0.518,2.615,1.234,3.74
				c8.96,14.496,12.587,19.273,15.032,29.623c1.722,7.297,1.928,21.188,1.408,32.625c-0.528,11.438-1.6,20.656-1.6,20.656
				c-0.528,4.389,2.601,8.373,6.989,8.902c4.388,0.527,8.374-2.602,8.902-6.988c0.005-0.045,0.01-0.088,0.015-0.131
				c0,0,1.104-9.701,1.656-21.721c0.544-12.02,0.752-26.127-1.813-37c-3.037-12.861-8.194-20.178-16.968-34.375
				c-1.549-2.592-4.426-4.09-7.438-3.875L295.313,1269.27z"/>
		</g>
	</g>
</g>
</svg>