<svg version="1.1" id="Layer_1" xmlns="http://www.w3.org/2000/svg" xmlns:xlink="http://www.w3.org/1999/xlink" x="0px" y="0px"
	 width="100%" viewBox="0 0 780 140" enable-background="new 0 0 780 140" xml:space="preserve">
<path fill="#FEFEFE" opacity="1.000000" stroke="none" 
	d="
M574.000000,141.000000 
	C382.718506,141.000000 191.937027,141.000000 1.077768,141.000000 
	C1.077768,94.397964 1.077768,47.795769 1.077768,1.096785 
	C260.999969,1.096785 521.000000,1.096785 780.971802,1.096785 
	C780.971802,47.729599 780.971802,94.364807 780.971802,141.000000 
	C712.129089,141.000000 643.314575,141.000000 574.000000,141.000000 
M96.795158,28.378706 
	C96.229065,28.179735 95.662964,27.980764 95.059967,27.889666 
	C95.059967,27.889666 95.159920,27.834826 94.822029,27.311810 
	C94.229828,27.165012 93.637619,27.018215 93.078896,26.933968 
	C93.078896,26.933968 93.114914,26.871962 92.616455,26.360725 
	C73.099945,18.132507 53.111370,18.326918 33.029629,23.548006 
	C23.965345,25.904646 20.513350,31.788815 21.426826,41.136192 
	C21.604599,42.955284 21.817039,44.771042 22.020229,46.587585 
	C25.604221,78.629318 44.342094,98.832245 75.587631,103.956535 
	C83.166191,104.834473 90.744751,105.712418 98.925903,106.660164 
	C95.739548,92.068108 89.524796,81.420776 77.411232,74.736740 
	C72.511604,72.033218 67.844055,68.909073 62.967701,65.185043 
	C63.045746,61.813984 63.123795,58.442928 63.633423,54.838276 
	C63.877480,54.590233 63.994022,54.292313 64.483391,53.670849 
	C64.783272,53.202839 65.083160,52.734833 65.436577,52.286201 
	C65.436577,52.286201 65.488533,52.309475 66.060020,52.222622 
	C66.712456,51.833862 67.364891,51.445103 68.747574,51.069393 
	C69.431091,50.843231 70.114609,50.617069 71.582527,50.522217 
	C72.107826,50.470421 72.633133,50.418625 73.501678,50.635933 
	C73.501678,50.635933 73.933502,50.574539 74.571274,50.915379 
	C75.717682,51.247902 76.864082,51.580421 78.383102,52.214573 
	C78.383102,52.214573 78.861977,52.236790 78.958389,52.127369 
	C78.958389,52.127369 78.823021,52.181629 79.218620,52.731754 
	C86.171471,57.247925 93.755638,61.053493 99.883842,66.497879 
	C105.087303,71.120697 108.610435,77.634903 112.867905,83.710442 
	C112.867905,83.710442 113.115379,84.022552 113.063438,84.612015 
	C113.354507,85.097099 113.645569,85.582176 113.996445,86.009026 
	C113.996445,86.009026 113.917633,86.036507 113.906654,86.679237 
	C114.235283,87.208183 114.563904,87.737129 114.896011,88.678398 
	C114.896011,88.678398 115.164291,88.991531 115.105820,89.642120 
	C115.528404,90.588326 115.950996,91.534531 116.373581,92.480721 
	C116.865028,91.968567 117.356468,91.456413 118.330109,90.365166 
	C119.320984,86.730461 120.590370,83.145348 121.248055,79.451317 
	C122.910011,70.116463 123.343979,60.816612 118.846802,51.379627 
	C118.602875,51.074707 118.358948,50.769787 118.183784,50.185436 
	C118.183784,50.185436 117.960281,50.004173 117.883438,49.309692 
	C116.274734,46.848854 114.666031,44.388012 113.003632,41.987835 
	C113.003632,41.987835 113.080444,41.962093 112.974442,41.425377 
	C112.694199,41.214195 112.413963,41.003014 112.167160,40.882183 
	C112.167160,40.882183 112.232033,40.810947 112.094597,40.219440 
	C111.381828,39.530712 110.669060,38.841988 109.741264,37.633419 
	C109.429497,37.439392 109.117729,37.245361 108.582901,36.492962 
	C107.784477,35.923492 106.986053,35.354023 106.091339,34.834114 
	C106.091339,34.834114 106.194923,34.865688 106.016495,34.348660 
	C105.695610,34.199104 105.374725,34.049553 105.030029,33.998821 
	C105.030029,33.998821 105.088028,33.915318 104.814133,33.350990 
	C103.928284,32.832142 103.042435,32.313297 102.077744,31.860010 
	C102.077744,31.860010 102.178703,31.877941 101.956223,31.404455 
	C101.637695,31.291094 101.319160,31.177732 100.983215,30.997183 
	C100.983215,30.997183 100.918175,31.021425 100.594887,30.550215 
	C100.073380,30.348946 99.551872,30.147676 99.002052,30.000822 
	C99.002052,30.000822 99.043144,29.954821 98.721786,29.444214 
	C98.164925,29.249367 97.608070,29.054520 97.036049,28.951851 
	C97.036049,28.951851 97.114937,28.901817 96.795158,28.378706 
M514.926453,92.092224 
	C514.966492,77.209511 515.034424,62.326740 515.005005,47.444164 
	C515.001953,45.904305 514.419739,44.365589 513.462341,42.470592 
	C506.538574,42.559246 498.444977,40.365665 496.374969,51.420811 
	C494.819794,55.463074 493.264618,59.505341 491.227264,64.089981 
	C489.417084,68.377922 487.606873,72.665863 485.377869,77.945900 
	C481.701843,69.460098 478.450928,61.955589 474.763611,53.920578 
	C473.845398,51.199291 473.180420,48.351093 471.905975,45.808350 
	C471.232849,44.465359 469.543121,42.829056 468.233765,42.757195 
	C464.181824,42.534832 460.092163,42.999619 455.421051,43.732109 
	C455.581238,54.497665 455.741425,65.263222 455.741241,76.669395 
	C455.798187,77.102440 455.855133,77.535492 455.588165,78.712532 
	C455.588165,83.968224 455.588165,89.223923 455.588165,94.638794 
	C459.824799,94.638794 463.724396,94.638794 468.064514,94.638794 
	C467.973755,92.912827 467.897980,91.472023 467.941376,89.334396 
	C467.872284,88.871300 467.803223,88.408203 467.938934,87.035629 
	C467.938934,80.547180 467.938934,74.058731 467.938934,67.570282 
	C468.570312,67.516006 469.201691,67.461723 469.833069,67.407448 
	C472.698761,74.956894 475.671326,82.468330 478.377319,90.074600 
	C479.449158,93.087425 480.294830,95.273605 484.383698,95.067993 
	C488.262970,94.872940 490.660858,94.352859 492.062378,90.085960 
	C494.652435,82.200485 498.037506,74.576141 501.091400,66.843018 
	C501.338989,66.919304 501.586609,66.995590 501.834198,67.071884 
	C501.974121,68.713020 502.114044,70.354156 502.034729,72.911713 
	C502.034729,80.087677 502.034729,87.263641 502.034729,95.880592 
	C506.835083,94.797997 510.788818,93.906334 514.926453,92.092224 
M110.921349,93.345573 
	C110.651108,92.832397 110.380867,92.319221 110.111366,91.362633 
	C110.111366,91.362633 109.858391,90.998459 109.906837,90.335953 
	C109.408394,89.363770 108.909950,88.391586 108.301743,86.808609 
	C107.807365,85.890060 107.312988,84.971504 106.715851,83.370949 
	C100.332680,70.170166 89.277374,62.398151 76.146652,57.015598 
	C72.857094,55.667133 69.438667,54.670868 67.589050,58.747978 
	C65.727539,62.851284 68.694603,64.930222 71.974472,66.251671 
	C85.012695,71.504784 94.916191,80.036324 100.744949,93.883110 
	C101.377068,95.768150 102.063751,97.636932 102.631218,99.541229 
	C104.427650,105.569778 106.095184,111.638168 107.984779,117.636894 
	C108.906502,120.563011 111.028053,121.879967 114.177605,121.079514 
	C117.335617,120.276917 117.935631,118.004272 117.174049,115.310013 
	C115.154327,108.164810 112.976982,101.064178 110.921349,93.345573 
M251.703522,94.952278 
	C258.069031,96.078575 263.879486,95.149483 268.916840,89.428795 
	C268.916840,92.601761 269.528564,95.084023 268.761810,97.020447 
	C267.805817,99.434860 266.088806,102.623680 264.019867,103.257828 
	C261.239777,104.109947 256.540894,104.020988 254.897446,102.256859 
	C250.118927,97.127525 245.054047,99.551796 239.800323,99.426758 
	C241.810623,109.783913 249.362778,115.448845 260.555969,115.555618 
	C271.291016,115.658012 280.551636,109.501976 281.090607,99.903893 
	C281.953278,84.540909 281.321625,69.094017 281.321625,53.409767 
	C277.585388,53.409767 273.680237,53.409767 269.539001,53.409767 
	C269.275726,54.956699 269.044281,56.316559 268.732727,58.147167 
	C262.511444,52.371243 255.766891,51.067093 248.400589,54.635151 
	C240.462234,58.480301 238.240891,65.645317 238.112915,73.661613 
	C237.959305,83.284843 241.717865,90.756317 251.703522,94.952278 
M138.506805,91.173668 
	C138.039551,94.143105 139.115021,95.433426 142.289215,95.159630 
	C145.205429,94.908081 148.160431,95.106178 151.440796,95.106178 
	C151.440796,87.514488 151.440796,80.592041 151.440796,73.695724 
	C158.167725,73.695724 164.508774,73.695724 171.198425,73.695724 
	C171.198425,80.999092 171.198425,87.760918 171.198425,94.672607 
	C175.601959,94.672607 179.639740,94.672607 183.818680,94.672607 
	C183.818680,77.224541 183.818680,60.131992 183.818680,42.645504 
	C179.578415,42.645504 175.534729,42.645504 171.014374,42.645504 
	C171.014374,49.495716 171.014374,56.068871 171.014374,62.696327 
	C164.297958,62.696327 158.058929,62.696327 151.209930,62.696327 
	C151.209930,55.867970 151.209930,49.309441 151.209930,42.609043 
	C146.695587,42.609043 142.799149,42.609043 138.480469,42.609043 
	C138.480469,58.704880 138.480469,74.470673 138.506805,91.173668 
M681.841187,55.999191 
	C681.836853,51.674305 682.007874,47.337669 681.719177,43.031826 
	C681.634949,41.775139 680.357117,39.681061 679.425354,39.563492 
	C676.070984,39.140236 672.630859,39.397240 669.030518,39.397240 
	C669.030518,49.237694 669.030518,58.211662 669.030518,67.185631 
	C669.030518,76.290817 669.030518,85.396011 669.030518,94.702576 
	C673.441589,94.702576 677.315552,94.702576 681.912354,94.702576 
	C681.912354,86.515800 681.846619,78.738571 681.939453,70.963234 
	C681.987549,66.942596 684.158875,64.477539 688.126892,63.715321 
	C691.752991,63.018753 694.992615,63.974602 696.573181,67.359352 
	C697.580750,69.517120 697.717529,72.201271 697.774231,74.660248 
	C697.926636,81.265686 697.826233,87.876961 697.826233,94.683472 
	C702.175903,94.683472 706.047791,94.683472 709.919495,94.683472 
	C709.919495,84.693382 710.370117,75.058128 709.772583,65.488319 
	C709.318970,58.223251 702.703613,52.617287 695.350586,53.129433 
	C690.841125,53.443523 686.457336,55.561718 681.841187,55.999191 
M528.425720,56.843552 
	C519.180115,64.405525 520.057617,82.728836 526.446777,88.645683 
	C529.483032,91.457489 533.320740,93.929550 537.233459,95.143921 
	C542.857910,96.889587 547.731689,93.959312 552.058350,89.732895 
	C552.590149,91.767036 552.988831,93.291985 553.352295,94.682327 
	C557.435852,94.682327 561.176147,94.682327 565.120605,94.682327 
	C565.120605,80.711510 565.120605,67.147675 565.120605,53.338188 
	C560.992920,53.338188 557.216736,53.338188 553.383789,53.338188 
	C552.904907,54.918873 552.464905,56.371147 551.978210,57.977608 
	C544.333069,51.425331 537.558167,51.021347 528.425720,56.843552 
M202.006119,85.575859 
	C205.206161,90.888588 204.836044,95.947182 201.713898,101.322594 
	C199.344910,105.401344 197.857849,109.992340 195.829559,114.700768 
	C198.919601,114.700768 201.271545,114.429436 203.536240,114.758545 
	C207.939377,115.398438 209.997742,113.403206 211.602219,109.460999 
	C216.420898,97.621681 221.653778,85.951515 226.667221,74.190689 
	C229.574585,67.370407 232.370773,60.502720 235.461395,53.068466 
	C232.020325,53.068466 229.354462,53.309528 226.750504,53.010906 
	C223.019485,52.583042 221.101257,53.811306 219.940353,57.582764 
	C217.829956,64.438797 215.092377,71.101768 212.203766,78.969543 
	C209.093857,70.655952 206.550980,63.523434 203.698425,56.516998 
	C203.132797,55.127693 201.481384,53.418499 200.152893,53.248840 
	C196.590714,52.793915 192.932144,53.093662 188.321976,53.093662 
	C193.004395,64.177391 197.372253,74.516510 202.006119,85.575859 
M574.552490,63.571396 
	C574.552490,73.979874 574.552490,84.388344 574.552490,94.685318 
	C579.268311,94.685318 583.187012,94.685318 587.307922,94.685318 
	C587.307922,86.994560 587.249023,79.673637 587.332642,72.354340 
	C587.374756,68.671005 588.354492,65.357765 592.338074,64.013420 
	C597.942749,62.122009 602.863220,65.386154 603.047058,71.446106 
	C603.282471,79.203117 603.104248,86.972679 603.104248,94.686913 
	C607.661133,94.686913 611.558044,94.686913 615.865051,94.686913 
	C615.865051,85.815811 616.157837,77.336281 615.792908,68.885147 
	C615.307556,57.646191 606.914673,50.968426 596.246277,53.235157 
	C593.155029,53.891960 590.322388,55.766117 587.332153,57.099640 
	C586.627625,52.571304 584.274109,51.950180 574.575012,53.759609 
	C574.575012,56.647827 574.575012,59.622681 574.552490,63.571396 
M445.366852,61.275318 
	C438.979004,52.622704 428.187836,49.993111 418.275574,54.673740 
	C409.461639,58.835716 405.190918,69.251717 407.832214,80.144249 
	C410.117462,89.568428 418.698517,95.995743 428.381287,95.535713 
	C438.022644,95.077652 445.645966,89.201080 446.951965,80.277542 
	C442.084778,81.064919 437.519806,81.711868 432.994812,82.569656 
	C430.266205,83.086906 427.236603,85.050407 425.004120,84.325531 
	C422.613403,83.549278 420.999695,80.380005 419.046875,78.255165 
	C419.397156,77.842667 419.747437,77.430168 420.097717,77.017670 
	C429.355865,77.017670 438.613983,77.017670 448.170502,77.017670 
	C449.384491,71.456619 448.068420,66.607407 445.366852,61.275318 
M349.609161,81.050003 
	C347.615173,81.014511 345.585205,80.727905 343.636261,81.007004 
	C341.193268,81.356857 338.825745,82.209297 336.409149,82.774223 
	C333.683838,83.411316 330.567932,85.047928 328.306671,84.267006 
	C325.927521,83.445381 324.358185,80.278900 322.434998,78.137009 
	C322.791260,77.800262 323.147552,77.463516 323.503845,77.126770 
	C328.147369,77.126770 332.790894,77.126778 337.434418,77.126778 
	C342.194946,77.126778 346.955444,77.126770 351.621826,77.126770 
	C353.145569,63.438515 346.352722,53.990025 334.752960,52.830563 
	C321.414978,51.497353 311.864136,58.725342 310.891754,70.888466 
	C309.761963,85.020493 317.386749,94.860199 330.014160,95.536758 
	C340.395386,96.092957 349.680695,89.209373 349.609161,81.050003 
M757.630798,83.862633 
	C757.949707,83.094856 758.342529,82.348892 758.576294,81.556007 
	C761.633362,71.186447 758.294250,60.841564 750.339294,55.966431 
	C742.140381,50.941765 729.954956,51.795898 723.287903,57.862587 
	C716.365784,64.161263 714.477234,75.914482 718.999084,84.553276 
	C726.798523,99.453598 746.836121,99.409218 757.630798,83.862633 
M399.881592,65.213760 
	C398.784973,60.414021 396.264526,56.488850 391.790192,54.422485 
	C384.687653,51.142342 377.996613,52.949978 371.735138,57.585865 
	C371.407562,52.716549 367.801880,51.797997 359.045654,53.807312 
	C359.045654,60.583160 359.045624,67.395248 359.045624,74.207344 
	C359.045624,80.983421 359.045654,87.759506 359.045654,94.602814 
	C363.534119,94.602814 367.561676,94.602814 371.895111,94.602814 
	C371.895111,86.532181 371.747559,78.885185 371.948822,71.247391 
	C372.075562,66.437721 374.882080,63.810516 379.413971,63.548199 
	C383.702484,63.299965 386.866638,65.926003 387.509796,70.596008 
	C387.871552,73.222687 387.872253,75.909004 387.899048,78.569824 
	C387.953491,83.979210 387.915283,89.389511 387.915283,94.738159 
	C392.362976,94.738159 396.118317,94.738159 399.990204,94.738159 
	C399.990204,84.973320 399.990204,75.527092 399.881592,65.213760 
M654.420044,81.033829 
	C649.509155,76.408615 650.010803,72.013992 654.259888,67.009102 
	C657.607178,63.066387 660.098572,58.396976 663.037781,53.947872 
	C652.597534,50.718369 646.453064,54.634003 643.025391,65.690422 
	C638.447449,54.525127 631.778870,50.635784 621.375610,53.955265 
	C624.898743,59.074707 628.083313,64.121384 631.710022,68.827362 
	C634.199646,72.057877 634.466370,74.623100 631.983032,78.073143 
	C628.260132,83.245186 625.105103,88.825928 621.799683,94.087761 
	C632.880188,98.292290 637.944275,91.990517 641.565857,83.012978 
	C644.831055,87.613472 646.609070,92.497650 649.997620,94.228027 
	C653.429749,95.980682 658.454468,94.614685 663.735291,94.614685 
	C660.443665,89.760826 657.669312,85.669685 654.420044,81.033829 
M303.703186,72.500221 
	C303.703186,66.091774 303.703186,59.683323 303.703186,53.359650 
	C299.170013,53.359650 295.275543,53.359650 291.363678,53.359650 
	C291.363678,67.410263 291.363678,81.097000 291.363678,94.703430 
	C295.640869,94.703430 299.542999,94.703430 303.681549,94.703430 
	C303.681549,87.397057 303.681549,80.448486 303.703186,72.500221 
M298.245667,35.024239 
	C292.767029,35.511253 289.516266,38.405109 289.758331,42.579716 
	C289.957611,46.015816 293.381317,48.901894 297.364655,48.964333 
	C301.158081,49.023792 303.991791,47.054501 304.773041,43.623531 
	C305.768982,39.249821 303.010162,36.561508 298.245667,35.024239 
z"/>
<path fill="#52AF57" opacity="1.000000" stroke="none" 
	d="
M74.935204,103.641273 
	C44.342094,98.832245 25.604221,78.629318 22.020229,46.587585 
	C21.817039,44.771042 21.604599,42.955284 21.426826,41.136192 
	C20.513350,31.788815 23.965345,25.904646 33.029629,23.548006 
	C53.111370,18.326918 73.099945,18.132507 92.447884,26.656563 
	C86.760429,25.828186 81.241539,24.703972 75.573761,23.549429 
	C74.162872,26.380791 75.197800,28.652452 77.969246,29.892370 
	C80.944366,31.223408 84.599777,31.412876 87.156494,33.229198 
	C94.909027,38.736698 102.572968,44.453125 109.675003,50.759804 
	C113.793144,54.416759 112.803566,57.213348 107.834541,58.683578 
	C106.809639,57.413334 105.267815,56.500366 105.206932,55.497498 
	C104.897804,50.405289 100.472244,49.115894 97.351173,46.835159 
	C94.674919,44.879478 91.708130,46.105553 91.266052,49.237976 
	C90.478432,54.818916 88.371017,53.139091 85.648369,50.884178 
	C84.796295,50.178482 83.762627,49.692047 82.978516,49.207993 
	C81.421570,50.322128 80.122299,51.251881 78.823021,52.181633 
	C78.823021,52.181629 78.958389,52.127369 78.898056,51.985344 
	C78.561974,51.866531 78.286232,51.889736 78.010490,51.912945 
	C76.864082,51.580421 75.717682,51.247902 74.186638,50.645611 
	C73.593956,50.210453 73.379433,50.207447 73.158432,50.366829 
	C72.633133,50.418625 72.107826,50.470421 70.949570,50.328903 
	C69.550186,50.442509 68.783752,50.749428 68.017326,51.056347 
	C67.364891,51.445103 66.712456,51.833862 65.633057,51.872665 
	C63.826218,47.641052 60.644596,48.086189 59.347084,50.522842 
	C57.271511,54.420639 55.518349,59.033321 55.480152,63.360138 
	C55.399780,72.465248 62.281040,77.757591 68.414909,83.233826 
	C71.090637,85.622673 73.678085,88.110413 76.642639,90.866577 
	C74.431374,92.884178 73.080170,94.946556 71.251846,95.540672 
	C69.584633,96.082428 67.400131,95.032257 65.443626,94.683739 
	C65.173729,95.027397 64.903831,95.371063 64.633926,95.714722 
	C66.084221,96.800552 67.511925,98.759941 68.989311,98.798149 
	C72.530754,98.889717 73.999001,100.750259 74.935204,103.641273 
z"/>
<path fill="#090708" opacity="1.000000" stroke="none" 
	d="
M251.329498,94.866394 
	C241.717865,90.756317 237.959305,83.284843 238.112915,73.661613 
	C238.240891,65.645317 240.462234,58.480301 248.400589,54.635151 
	C255.766891,51.067093 262.511444,52.371243 268.732727,58.147167 
	C269.044281,56.316559 269.275726,54.956699 269.539001,53.409767 
	C273.680237,53.409767 277.585388,53.409767 281.321625,53.409767 
	C281.321625,69.094017 281.953278,84.540909 281.090607,99.903893 
	C280.551636,109.501976 271.291016,115.658012 260.555969,115.555618 
	C249.362778,115.448845 241.810623,109.783913 239.800323,99.426758 
	C245.054047,99.551796 250.118927,97.127525 254.897446,102.256859 
	C256.540894,104.020988 261.239777,104.109947 264.019867,103.257828 
	C266.088806,102.623680 267.805817,99.434860 268.761810,97.020447 
	C269.528564,95.084023 268.916840,92.601761 268.916840,89.428795 
	C263.879486,95.149483 258.069031,96.078575 251.329498,94.866394 
M251.398468,77.626045 
	C251.607147,78.075150 251.787643,78.540039 252.028824,78.970963 
	C254.677933,83.704300 258.716400,85.474998 263.110291,83.841087 
	C267.276245,82.291931 270.012421,76.413071 268.924561,71.348717 
	C267.915375,66.650467 263.977173,63.632214 259.268890,63.948601 
	C253.421066,64.341553 250.714249,68.637520 251.398468,77.626045 
z"/>
<path fill="#0C0A0B" opacity="1.000000" stroke="none" 
	d="
M138.493637,90.705063 
	C138.480469,74.470673 138.480469,58.704880 138.480469,42.609043 
	C142.799149,42.609043 146.695587,42.609043 151.209930,42.609043 
	C151.209930,49.309441 151.209930,55.867970 151.209930,62.696327 
	C158.058929,62.696327 164.297958,62.696327 171.014374,62.696327 
	C171.014374,56.068871 171.014374,49.495716 171.014374,42.645504 
	C175.534729,42.645504 179.578415,42.645504 183.818680,42.645504 
	C183.818680,60.131992 183.818680,77.224541 183.818680,94.672607 
	C179.639740,94.672607 175.601959,94.672607 171.198425,94.672607 
	C171.198425,87.760918 171.198425,80.999092 171.198425,73.695724 
	C164.508774,73.695724 158.167725,73.695724 151.440796,73.695724 
	C151.440796,80.592041 151.440796,87.514488 151.440796,95.106178 
	C148.160431,95.106178 145.205429,94.908081 142.289215,95.159630 
	C139.115021,95.433426 138.039551,94.143105 138.493637,90.705063 
z"/>
<path fill="#080708" opacity="1.000000" stroke="none" 
	d="
M681.929199,56.434475 
	C686.457336,55.561718 690.841125,53.443523 695.350586,53.129433 
	C702.703613,52.617287 709.318970,58.223251 709.772583,65.488319 
	C710.370117,75.058128 709.919495,84.693382 709.919495,94.683472 
	C706.047791,94.683472 702.175903,94.683472 697.826233,94.683472 
	C697.826233,87.876961 697.926636,81.265686 697.774231,74.660248 
	C697.717529,72.201271 697.580750,69.517120 696.573181,67.359352 
	C694.992615,63.974602 691.752991,63.018753 688.126892,63.715321 
	C684.158875,64.477539 681.987549,66.942596 681.939453,70.963234 
	C681.846619,78.738571 681.912354,86.515800 681.912354,94.702576 
	C677.315552,94.702576 673.441589,94.702576 669.030518,94.702576 
	C669.030518,85.396011 669.030518,76.290817 669.030518,67.185631 
	C669.030518,58.211662 669.030518,49.237694 669.030518,39.397240 
	C672.630859,39.397240 676.070984,39.140236 679.425354,39.563492 
	C680.357117,39.681061 681.634949,41.775139 681.719177,43.031826 
	C682.007874,47.337669 681.836853,51.674305 681.929199,56.434475 
z"/>
<path fill="#070607" opacity="1.000000" stroke="none" 
	d="
M528.702026,56.594711 
	C537.558167,51.021347 544.333069,51.425331 551.978210,57.977608 
	C552.464905,56.371147 552.904907,54.918873 553.383789,53.338188 
	C557.216736,53.338188 560.992920,53.338188 565.120605,53.338188 
	C565.120605,67.147675 565.120605,80.711510 565.120605,94.682327 
	C561.176147,94.682327 557.435852,94.682327 553.352295,94.682327 
	C552.988831,93.291985 552.590149,91.767036 552.058350,89.732895 
	C547.731689,93.959312 542.857910,96.889587 537.233459,95.143921 
	C533.320740,93.929550 529.483032,91.457489 526.446777,88.645683 
	C520.057617,82.728836 519.180115,64.405525 528.702026,56.594711 
M536.155823,67.813019 
	C532.888245,75.153763 535.100037,82.499977 541.029907,84.001778 
	C545.584351,85.155251 549.710754,83.154839 551.645081,78.855568 
	C553.772217,74.128075 552.444336,68.142204 548.644409,65.328636 
	C545.260498,62.823093 540.540771,63.552696 536.155823,67.813019 
z"/>
<path fill="#0A0909" opacity="1.000000" stroke="none" 
	d="
M201.873108,85.215744 
	C197.372253,74.516510 193.004395,64.177391 188.321976,53.093662 
	C192.932144,53.093662 196.590714,52.793915 200.152893,53.248840 
	C201.481384,53.418499 203.132797,55.127693 203.698425,56.516998 
	C206.550980,63.523434 209.093857,70.655952 212.203766,78.969543 
	C215.092377,71.101768 217.829956,64.438797 219.940353,57.582764 
	C221.101257,53.811306 223.019485,52.583042 226.750504,53.010906 
	C229.354462,53.309528 232.020325,53.068466 235.461395,53.068466 
	C232.370773,60.502720 229.574585,67.370407 226.667221,74.190689 
	C221.653778,85.951515 216.420898,97.621681 211.602219,109.460999 
	C209.997742,113.403206 207.939377,115.398438 203.536240,114.758545 
	C201.271545,114.429436 198.919601,114.700768 195.829559,114.700768 
	C197.857849,109.992340 199.344910,105.401344 201.713898,101.322594 
	C204.836044,95.947182 205.206161,90.888588 201.873108,85.215744 
z"/>
<path fill="#090708" opacity="1.000000" stroke="none" 
	d="
M574.563721,63.084465 
	C574.575012,59.622681 574.575012,56.647827 574.575012,53.759609 
	C584.274109,51.950180 586.627625,52.571304 587.332153,57.099640 
	C590.322388,55.766117 593.155029,53.891960 596.246277,53.235157 
	C606.914673,50.968426 615.307556,57.646191 615.792908,68.885147 
	C616.157837,77.336281 615.865051,85.815811 615.865051,94.686913 
	C611.558044,94.686913 607.661133,94.686913 603.104248,94.686913 
	C603.104248,86.972679 603.282471,79.203117 603.047058,71.446106 
	C602.863220,65.386154 597.942749,62.122009 592.338074,64.013420 
	C588.354492,65.357765 587.374756,68.671005 587.332642,72.354340 
	C587.249023,79.673637 587.307922,86.994560 587.307922,94.685318 
	C583.187012,94.685318 579.268311,94.685318 574.552490,94.685318 
	C574.552490,84.388344 574.552490,73.979874 574.563721,63.084465 
z"/>
<path fill="#0A0809" opacity="1.000000" stroke="none" 
	d="
M445.583008,61.583321 
	C448.068420,66.607407 449.384491,71.456619 448.170502,77.017670 
	C438.613983,77.017670 429.355865,77.017670 420.097717,77.017670 
	C419.747437,77.430168 419.397156,77.842667 419.046875,78.255165 
	C420.999695,80.380005 422.613403,83.549278 425.004120,84.325531 
	C427.236603,85.050407 430.266205,83.086906 432.994812,82.569656 
	C437.519806,81.711868 442.084778,81.064919 446.951965,80.277542 
	C445.645966,89.201080 438.022644,95.077652 428.381287,95.535713 
	C418.698517,95.995743 410.117462,89.568428 407.832214,80.144249 
	C405.190918,69.251717 409.461639,58.835716 418.275574,54.673740 
	C428.187836,49.993111 438.979004,52.622704 445.583008,61.583321 
M432.991821,64.617577 
	C426.149292,61.441185 421.478424,63.362461 420.486725,69.505371 
	C425.469604,69.505371 430.476776,69.505371 436.497314,69.505371 
	C435.188721,67.463791 434.434448,66.287056 432.991821,64.617577 
z"/>
<path fill="#090809" opacity="1.000000" stroke="none" 
	d="
M349.995026,81.167480 
	C349.680695,89.209373 340.395386,96.092957 330.014160,95.536758 
	C317.386749,94.860199 309.761963,85.020493 310.891754,70.888466 
	C311.864136,58.725342 321.414978,51.497353 334.752960,52.830563 
	C346.352722,53.990025 353.145569,63.438515 351.621826,77.126770 
	C346.955444,77.126770 342.194946,77.126778 337.434418,77.126778 
	C332.790894,77.126778 328.147369,77.126770 323.503845,77.126770 
	C323.147552,77.463516 322.791260,77.800262 322.434998,78.137009 
	C324.358185,80.278900 325.927521,83.445381 328.306671,84.267006 
	C330.567932,85.047928 333.683838,83.411316 336.409149,82.774223 
	C338.825745,82.209297 341.193268,81.356857 343.636261,81.007004 
	C345.585205,80.727905 347.615173,81.014511 349.995026,81.167480 
M329.586792,69.947350 
	C332.641052,69.947350 335.695312,69.947350 339.140747,69.947350 
	C338.109924,64.610352 335.062195,62.856544 330.843292,63.113686 
	C326.906525,63.353630 324.289398,65.386276 323.563538,69.946732 
	C325.690277,69.946732 327.171356,69.946732 329.586792,69.947350 
z"/>
<path fill="#090808" opacity="1.000000" stroke="none" 
	d="
M757.404785,84.165665 
	C746.836121,99.409218 726.798523,99.453598 718.999084,84.553276 
	C714.477234,75.914482 716.365784,64.161263 723.287903,57.862587 
	C729.954956,51.795898 742.140381,50.941765 750.339294,55.966431 
	C758.294250,60.841564 761.633362,71.186447 758.576294,81.556007 
	C758.342529,82.348892 757.949707,83.094856 757.404785,84.165665 
M744.592651,81.038635 
	C745.303040,78.520439 746.480042,76.029007 746.626282,73.478462 
	C746.925903,68.252228 744.054199,64.660400 739.725220,64.009293 
	C735.464111,63.368382 732.171082,64.691185 730.342834,68.776398 
	C728.226257,73.506111 729.533630,80.606071 733.262695,82.882828 
	C737.009460,85.170349 740.823730,85.087105 744.592651,81.038635 
z"/>
<path fill="#080708" opacity="1.000000" stroke="none" 
	d="
M399.935913,65.647308 
	C399.990204,75.527092 399.990204,84.973320 399.990204,94.738159 
	C396.118317,94.738159 392.362976,94.738159 387.915283,94.738159 
	C387.915283,89.389511 387.953491,83.979210 387.899048,78.569824 
	C387.872253,75.909004 387.871552,73.222687 387.509796,70.596008 
	C386.866638,65.926003 383.702484,63.299965 379.413971,63.548199 
	C374.882080,63.810516 372.075562,66.437721 371.948822,71.247391 
	C371.747559,78.885185 371.895111,86.532181 371.895111,94.602814 
	C367.561676,94.602814 363.534119,94.602814 359.045654,94.602814 
	C359.045654,87.759506 359.045624,80.983421 359.045624,74.207344 
	C359.045624,67.395248 359.045654,60.583160 359.045654,53.807312 
	C367.801880,51.797997 371.407562,52.716549 371.735138,57.585865 
	C377.996613,52.949978 384.687653,51.142342 391.790192,54.422485 
	C396.264526,56.488850 398.784973,60.414021 399.935913,65.647308 
z"/>
<path fill="#0A090A" opacity="1.000000" stroke="none" 
	d="
M654.657471,81.306190 
	C657.669312,85.669685 660.443665,89.760826 663.735291,94.614685 
	C658.454468,94.614685 653.429749,95.980682 649.997620,94.228027 
	C646.609070,92.497650 644.831055,87.613472 641.565857,83.012978 
	C637.944275,91.990517 632.880188,98.292290 621.799683,94.087761 
	C625.105103,88.825928 628.260132,83.245186 631.983032,78.073143 
	C634.466370,74.623100 634.199646,72.057877 631.710022,68.827362 
	C628.083313,64.121384 624.898743,59.074707 621.375610,53.955265 
	C631.778870,50.635784 638.447449,54.525127 643.025391,65.690422 
	C646.453064,54.634003 652.597534,50.718369 663.037781,53.947872 
	C660.098572,58.396976 657.607178,63.066387 654.259888,67.009102 
	C650.010803,72.013992 649.509155,76.408615 654.657471,81.306190 
z"/>
<path fill="#58B05B" opacity="1.000000" stroke="none" 
	d="
M502.253967,71.995293 
	C502.114044,70.354156 501.974121,68.713020 501.834198,67.071884 
	C501.586609,66.995590 501.338989,66.919304 501.091400,66.843018 
	C498.037506,74.576141 494.652435,82.200485 492.062378,90.085960 
	C490.660858,94.352859 488.262970,94.872940 484.383698,95.067993 
	C480.294830,95.273605 479.449158,93.087425 478.377319,90.074600 
	C475.671326,82.468330 472.698761,74.956894 469.833069,67.407448 
	C469.201691,67.461723 468.570312,67.516006 467.938934,67.570282 
	C467.938934,74.058731 467.938934,80.547180 467.599060,87.183121 
	C466.513916,78.669754 463.823822,75.992836 455.901611,76.028778 
	C455.741425,65.263222 455.581238,54.497665 455.727661,43.873859 
	C456.359802,46.775475 456.146576,49.759884 457.174683,52.226982 
	C458.060699,54.353111 460.043518,56.615757 462.109375,57.518944 
	C465.290100,58.909576 468.956696,59.189003 473.158783,60.100769 
	C473.696167,58.613415 474.448090,56.532249 475.200012,54.451080 
	C478.450928,61.955589 481.701843,69.460098 485.377869,77.945900 
	C487.606873,72.665863 489.417084,68.377922 491.641083,64.154907 
	C494.018280,68.387215 496.532043,65.650696 498.982025,64.855774 
	C500.318634,64.422104 502.272614,63.730339 503.125732,64.328316 
	C507.670471,67.513878 507.460693,75.998291 502.973907,79.566933 
	C502.730194,76.760773 502.492065,74.378036 502.253967,71.995293 
z"/>
<path fill="#55B358" opacity="1.000000" stroke="none" 
	d="
M75.261414,103.798904 
	C73.999001,100.750259 72.530754,98.889717 68.989311,98.798149 
	C67.511925,98.759941 66.084221,96.800552 64.633926,95.714722 
	C64.903831,95.371063 65.173729,95.027397 65.443626,94.683739 
	C67.400131,95.032257 69.584633,96.082428 71.251846,95.540672 
	C73.080170,94.946556 74.431374,92.884178 76.642639,90.866577 
	C73.678085,88.110413 71.090637,85.622673 68.414909,83.233826 
	C62.281040,77.757591 55.399780,72.465248 55.480152,63.360138 
	C55.518349,59.033321 57.271511,54.420639 59.347084,50.522842 
	C60.644596,48.086189 63.826218,47.641052 65.347321,51.916092 
	C65.488533,52.309475 65.436577,52.286201 65.094917,52.310364 
	C64.496529,52.871189 64.239792,53.407848 63.983059,53.944508 
	C63.994022,54.292313 63.877480,54.590233 63.036018,54.966492 
	C61.305584,56.797180 59.090836,58.651093 59.302811,60.165276 
	C59.592915,62.237522 61.727116,64.051605 63.070900,65.976341 
	C67.844055,68.909073 72.511604,72.033218 77.411232,74.736740 
	C89.524796,81.420776 95.739548,92.068108 98.925903,106.660164 
	C90.744751,105.712418 83.166191,104.834473 75.261414,103.798904 
z"/>
<path fill="#50B255" opacity="1.000000" stroke="none" 
	d="
M108.000610,58.999390 
	C112.803566,57.213348 113.793144,54.416759 109.675003,50.759804 
	C102.572968,44.453125 94.909027,38.736698 87.156494,33.229198 
	C84.599777,31.412876 80.944366,31.223408 77.969246,29.892370 
	C75.197800,28.652452 74.162872,26.380791 75.573761,23.549429 
	C81.241539,24.703972 86.760429,25.828186 92.697113,26.912180 
	C93.114914,26.871962 93.078896,26.933968 93.218369,27.182636 
	C93.958542,27.565811 94.559227,27.700317 95.159920,27.834824 
	C95.159920,27.834826 95.059967,27.889666 95.203293,28.132366 
	C95.936058,28.550652 96.525497,28.726234 97.114937,28.901817 
	C97.114937,28.901817 97.036049,28.951851 97.184097,29.182446 
	C97.902481,29.593636 98.472809,29.774229 99.043144,29.954821 
	C99.043144,29.954821 99.002052,30.000822 99.158882,30.227200 
	C99.849869,30.642859 100.384018,30.832142 100.918175,31.021425 
	C100.918175,31.021425 100.983215,30.997183 101.125916,31.244030 
	C101.571976,31.619898 101.875343,31.748920 102.178703,31.877941 
	C102.178703,31.877941 102.077744,31.860010 102.113190,32.196415 
	C103.128426,32.993656 104.108231,33.454487 105.088028,33.915318 
	C105.088028,33.915318 105.030029,33.998821 105.148010,34.195694 
	C105.575630,34.550278 105.885277,34.707981 106.194923,34.865688 
	C106.194923,34.865688 106.091339,34.834114 106.116104,35.160156 
	C107.029228,36.007912 107.917595,36.529621 108.805962,37.051334 
	C109.117729,37.245361 109.429497,37.439392 109.868927,38.247517 
	C110.741745,39.511391 111.486893,40.161167 112.232033,40.810944 
	C112.232033,40.810947 112.167160,40.882183 112.209198,41.101040 
	C112.527641,41.533962 112.804047,41.748028 113.080444,41.962090 
	C113.080444,41.962093 113.003632,41.987835 113.011406,42.361534 
	C112.670158,46.515045 114.126892,49.067379 117.960281,50.004173 
	C117.960281,50.004173 118.183784,50.185436 118.180176,50.622856 
	C118.411118,51.366119 118.645660,51.671970 118.880203,51.977818 
	C123.343979,60.816612 122.910011,70.116463 121.248055,79.451317 
	C120.590370,83.145348 119.320984,86.730461 117.857811,90.478989 
	C116.645103,90.059059 115.904694,89.525299 115.164291,88.991531 
	C115.164291,88.991531 114.896011,88.678398 114.914780,88.138374 
	C114.594910,87.077736 114.256271,86.557121 113.917633,86.036507 
	C113.917633,86.036507 113.996445,86.009026 113.979141,85.742523 
	C113.679688,84.991539 113.397537,84.507042 113.115379,84.022552 
	C113.115379,84.022552 112.867905,83.710442 112.909592,83.107574 
	C110.518700,76.914978 108.086121,71.325256 105.653549,65.735527 
	C105.146896,65.896606 104.640251,66.057686 104.133606,66.218765 
	C105.422607,63.812305 106.711609,61.405846 108.000610,58.999390 
z"/>
<path fill="#0D0B0D" opacity="1.000000" stroke="none" 
	d="
M303.692383,73.000069 
	C303.681549,80.448486 303.681549,87.397057 303.681549,94.703430 
	C299.542999,94.703430 295.640869,94.703430 291.363678,94.703430 
	C291.363678,81.097000 291.363678,67.410263 291.363678,53.359650 
	C295.275543,53.359650 299.170013,53.359650 303.703186,53.359650 
	C303.703186,59.683323 303.703186,66.091774 303.692383,73.000069 
z"/>
<path fill="#5ABC5D" opacity="1.000000" stroke="none" 
	d="
M108.411499,87.419411 
	C108.909950,88.391586 109.408394,89.363770 109.462128,90.671219 
	C106.201843,91.710991 103.386269,92.415489 100.570694,93.119987 
	C94.916191,80.036324 85.012695,71.504784 71.974472,66.251671 
	C68.694603,64.930222 65.727539,62.851284 67.589050,58.747978 
	C69.438667,54.670868 72.857094,55.667133 76.146652,57.015598 
	C89.277374,62.398151 100.332680,70.170166 106.516541,83.942459 
	C106.092087,85.844185 105.866936,87.174393 105.641777,88.504608 
	C106.565018,88.142876 107.488258,87.781143 108.411499,87.419411 
z"/>
<path fill="#50AF52" opacity="1.000000" stroke="none" 
	d="
M502.979523,79.990349 
	C507.460693,75.998291 507.670471,67.513878 503.125732,64.328316 
	C502.272614,63.730339 500.318634,64.422104 498.982025,64.855774 
	C496.532043,65.650696 494.018280,68.387215 491.882202,63.883720 
	C493.264618,59.505341 494.819794,55.463074 497.019806,51.352959 
	C499.119446,51.523296 500.581482,52.001484 502.027740,51.957726 
	C507.983734,51.777542 512.213135,54.010571 513.991333,60.422935 
	C513.986023,62.562107 513.961060,64.273605 513.546143,65.992020 
	C511.839966,66.708359 510.523773,67.417786 509.207581,68.127213 
	C510.471710,68.751373 511.735870,69.375526 513.000122,70.401230 
	C513.310791,72.521111 513.621399,74.239441 513.954956,76.378479 
	C513.951477,78.202576 513.925110,79.605957 513.493530,81.005066 
	C509.652222,80.540955 507.132721,81.461029 505.868591,85.089043 
	C505.363312,86.539230 504.019165,87.697144 503.037537,88.539093 
	C503.005310,85.390182 502.992401,82.690262 502.979523,79.990349 
z"/>
<path fill="#59B35C" opacity="1.000000" stroke="none" 
	d="
M107.834541,58.683578 
	C106.711609,61.405846 105.422607,63.812305 104.133606,66.218765 
	C104.640251,66.057686 105.146896,65.896606 105.653549,65.735527 
	C108.086121,71.325256 110.518700,76.914978 112.914169,82.908463 
	C108.610435,77.634903 105.087303,71.120697 99.883842,66.497879 
	C93.755638,61.053493 86.171471,57.247925 79.020821,52.456696 
	C80.122299,51.251881 81.421570,50.322128 82.978516,49.207993 
	C83.762627,49.692047 84.796295,50.178482 85.648369,50.884178 
	C88.371017,53.139091 90.478432,54.818916 91.266052,49.237976 
	C91.708130,46.105553 94.674919,44.879478 97.351173,46.835159 
	C100.472244,49.115894 104.897804,50.405289 105.206932,55.497498 
	C105.267815,56.500366 106.809639,57.413334 107.834541,58.683578 
z"/>
<path fill="#54B254" opacity="1.000000" stroke="none" 
	d="
M100.657822,93.501549 
	C103.386269,92.415489 106.201843,91.710991 109.437904,91.002472 
	C109.858391,90.998459 110.111366,91.362633 110.082680,91.889244 
	C110.323441,92.925842 110.592896,93.435829 110.862350,93.945816 
	C112.976982,101.064178 115.154327,108.164810 117.174049,115.310013 
	C117.935631,118.004272 117.335617,120.276917 114.177605,121.079514 
	C111.028053,121.879967 108.906502,120.563011 107.984779,117.636894 
	C106.095184,111.638168 104.427650,105.569778 102.631218,99.541229 
	C102.063751,97.636932 101.377068,95.768150 100.657822,93.501549 
z"/>
<path fill="#4CAD51" opacity="1.000000" stroke="none" 
	d="
M474.981812,54.185829 
	C474.448090,56.532249 473.696167,58.613415 473.158783,60.100769 
	C468.956696,59.189003 465.290100,58.909576 462.109375,57.518944 
	C460.043518,56.615757 458.060699,54.353111 457.174683,52.226982 
	C456.146576,49.759884 456.359802,46.775475 456.025696,43.606621 
	C460.092163,42.999619 464.181824,42.534832 468.233765,42.757195 
	C469.543121,42.829056 471.232849,44.465359 471.905975,45.808350 
	C473.180420,48.351093 473.845398,51.199291 474.981812,54.185829 
z"/>
<path fill="#0E0C0D" opacity="1.000000" stroke="none" 
	d="
M298.637878,35.060764 
	C303.010162,36.561508 305.768982,39.249821 304.773041,43.623531 
	C303.991791,47.054501 301.158081,49.023792 297.364655,48.964333 
	C293.381317,48.901894 289.957611,46.015816 289.758331,42.579716 
	C289.516266,38.405109 292.767029,35.511253 298.637878,35.060764 
z"/>
<path fill="#4AAD4C" opacity="1.000000" stroke="none" 
	d="
M513.971619,59.995258 
	C512.213135,54.010571 507.983734,51.777542 502.027740,51.957726 
	C500.581482,52.001484 499.119446,51.523296 497.284760,51.121307 
	C498.444977,40.365665 506.538574,42.559246 513.770996,43.129318 
	C514.043640,49.190453 514.007629,54.592854 513.971619,59.995258 
z"/>
<path fill="#4AB24C" opacity="1.000000" stroke="none" 
	d="
M455.821442,76.349091 
	C463.823822,75.992836 466.513916,78.669754 467.496674,87.637856 
	C467.803223,88.408203 467.872284,88.871300 467.638794,89.944817 
	C466.455383,95.295235 462.602936,94.301727 459.886505,93.667206 
	C458.594971,93.365532 457.486633,90.432922 457.095062,88.527771 
	C456.384979,85.072929 456.273468,81.495049 455.912048,77.968536 
	C455.855133,77.535492 455.798187,77.102440 455.821442,76.349091 
z"/>
<path fill="#58B05B" opacity="1.000000" stroke="none" 
	d="
M455.750122,78.340530 
	C456.273468,81.495049 456.384979,85.072929 457.095062,88.527771 
	C457.486633,90.432922 458.594971,93.365532 459.886505,93.667206 
	C462.602936,94.301727 466.455383,95.295235 467.579224,90.293228 
	C467.897980,91.472023 467.973755,92.912827 468.064514,94.638794 
	C463.724396,94.638794 459.824799,94.638794 455.588165,94.638794 
	C455.588165,89.223923 455.588165,83.968224 455.750122,78.340530 
z"/>
<path fill="#88B582" opacity="1.000000" stroke="none" 
	d="
M513.991333,60.422935 
	C514.007629,54.592854 514.043640,49.190453 514.092957,43.307198 
	C514.419739,44.365589 515.001953,45.904305 515.005005,47.444164 
	C515.034424,62.326740 514.966492,77.209511 514.668335,92.546677 
	C514.410156,93.001129 514.077759,92.980934 514.064697,92.522217 
	C514.000610,88.378777 513.949646,84.694061 513.898682,81.009338 
	C513.925110,79.605957 513.951477,78.202576 513.978333,75.956940 
	C513.955139,73.419945 513.931519,71.725189 513.936401,69.626785 
	C513.955261,68.143784 513.945679,67.064438 513.936096,65.985100 
	C513.961060,64.273605 513.986023,62.562107 513.991333,60.422935 
z"/>
<path fill="#80B178" opacity="1.000000" stroke="none" 
	d="
M514.077759,92.980934 
	C514.077759,92.980934 514.410156,93.001129 514.576355,93.007896 
	C510.788818,93.906334 506.835083,94.797997 502.034729,95.880592 
	C502.034729,87.263641 502.034729,80.087677 502.144348,72.453506 
	C502.492065,74.378036 502.730194,76.760773 502.973907,79.566933 
	C502.992401,82.690262 503.005310,85.390182 503.017944,88.972038 
	C503.555237,91.196159 504.057037,93.673203 504.636292,93.691444 
	C507.772888,93.790245 510.928619,93.280792 514.077759,92.980934 
z"/>
<path fill="#52AF57" opacity="1.000000" stroke="none" 
	d="
M63.019302,65.580688 
	C61.727116,64.051605 59.592915,62.237522 59.302811,60.165276 
	C59.090836,58.651093 61.305584,56.797180 62.820225,55.083290 
	C63.123795,58.442928 63.045746,61.813984 63.019302,65.580688 
z"/>
<path fill="#52AF57" opacity="1.000000" stroke="none" 
	d="
M117.921860,49.656933 
	C114.126892,49.067379 112.670158,46.515045 113.038254,42.331203 
	C114.666031,44.388012 116.274734,46.848854 117.921860,49.656933 
z"/>
<path fill="#54B254" opacity="1.000000" stroke="none" 
	d="
M108.356621,87.114014 
	C107.488258,87.781143 106.565018,88.142876 105.641777,88.504608 
	C105.866936,87.174393 106.092087,85.844185 106.567917,84.283463 
	C107.312988,84.971504 107.807365,85.890060 108.356621,87.114014 
z"/>
<path fill="#59B35C" opacity="1.000000" stroke="none" 
	d="
M115.135056,89.316833 
	C115.904694,89.525299 116.645103,90.059059 117.616714,90.768539 
	C117.356468,91.456413 116.865028,91.968567 116.373581,92.480728 
	C115.950996,91.534531 115.528404,90.588326 115.135056,89.316833 
z"/>
<path fill="#52AF57" opacity="1.000000" stroke="none" 
	d="
M108.694427,36.772148 
	C107.917595,36.529621 107.029228,36.007912 106.164246,35.135376 
	C106.986053,35.354023 107.784477,35.923492 108.694427,36.772148 
z"/>
<path fill="#52AF57" opacity="1.000000" stroke="none" 
	d="
M104.951080,33.633156 
	C104.108231,33.454487 103.128426,32.993656 102.152603,32.163635 
	C103.042435,32.313297 103.928284,32.832142 104.951080,33.633156 
z"/>
<path fill="#52AF57" opacity="1.000000" stroke="none" 
	d="
M112.163315,40.515190 
	C111.486893,40.161167 110.741745,39.511391 109.976448,38.507439 
	C110.669060,38.841988 111.381828,39.530712 112.163315,40.515190 
z"/>
<path fill="#59B35C" opacity="1.000000" stroke="none" 
	d="
M68.382446,51.062870 
	C68.783752,50.749428 69.550186,50.442509 70.557373,50.263252 
	C70.114609,50.617069 69.431091,50.843231 68.382446,51.062870 
z"/>
<path fill="#52AF57" opacity="1.000000" stroke="none" 
	d="
M94.990974,27.573317 
	C94.559227,27.700317 93.958542,27.565811 93.201630,27.151361 
	C93.637619,27.018215 94.229828,27.165012 94.990974,27.573317 
z"/>
<path fill="#59B35C" opacity="1.000000" stroke="none" 
	d="
M113.089409,84.317284 
	C113.397537,84.507042 113.679688,84.991539 113.949234,85.771645 
	C113.645569,85.582176 113.354507,85.097099 113.089409,84.317284 
z"/>
<path fill="#59B35C" opacity="1.000000" stroke="none" 
	d="
M113.912140,86.357872 
	C114.256271,86.557121 114.594910,87.077736 114.913040,87.932213 
	C114.563904,87.737129 114.235283,87.208183 113.912140,86.357872 
z"/>
<path fill="#52AF57" opacity="1.000000" stroke="none" 
	d="
M64.233223,53.807678 
	C64.239792,53.407848 64.496529,52.871189 65.068153,52.300678 
	C65.083160,52.734833 64.783272,53.202839 64.233223,53.807678 
z"/>
<path fill="#52AF57" opacity="1.000000" stroke="none" 
	d="
M100.756531,30.785820 
	C100.384018,30.832142 99.849869,30.642859 99.173035,30.199993 
	C99.551872,30.147676 100.073380,30.348946 100.756531,30.785820 
z"/>
<path fill="#52AF57" opacity="1.000000" stroke="none" 
	d="
M98.882462,29.699516 
	C98.472809,29.774229 97.902481,29.593636 97.191681,29.136358 
	C97.608070,29.054520 98.164925,29.249367 98.882462,29.699516 
z"/>
<path fill="#5ABC5D" opacity="1.000000" stroke="none" 
	d="
M110.891846,93.645691 
	C110.592896,93.435829 110.323441,92.925842 110.082306,92.110947 
	C110.380867,92.319221 110.651108,92.832397 110.891846,93.645691 
z"/>
<path fill="#52AF57" opacity="1.000000" stroke="none" 
	d="
M96.955048,28.640263 
	C96.525497,28.726234 95.936058,28.550652 95.221741,28.078430 
	C95.662964,27.980764 96.229065,28.179735 96.955048,28.640263 
z"/>
<path fill="#52AF57" opacity="1.000000" stroke="none" 
	d="
M113.027443,41.693733 
	C112.804047,41.748028 112.527641,41.533962 112.192482,41.055862 
	C112.413963,41.003014 112.694199,41.214195 113.027443,41.693733 
z"/>
<path fill="#59B35C" opacity="1.000000" stroke="none" 
	d="
M73.330055,50.501381 
	C73.379433,50.207447 73.593956,50.210453 73.867752,50.475189 
	C73.933502,50.574539 73.501678,50.635933 73.330055,50.501381 
z"/>
<path fill="#52AF57" opacity="1.000000" stroke="none" 
	d="
M106.105713,34.607174 
	C105.885277,34.707981 105.575630,34.550278 105.159912,34.146286 
	C105.374725,34.049553 105.695610,34.199104 106.105713,34.607174 
z"/>
<path fill="#59B35C" opacity="1.000000" stroke="none" 
	d="
M78.196793,52.063759 
	C78.286232,51.889736 78.561974,51.866531 78.849846,52.040054 
	C78.861977,52.236790 78.383102,52.214573 78.196793,52.063759 
z"/>
<path fill="#52AF57" opacity="1.000000" stroke="none" 
	d="
M118.863503,51.678722 
	C118.645660,51.671970 118.411118,51.366119 118.145798,50.762569 
	C118.358948,50.769787 118.602875,51.074707 118.863503,51.678722 
z"/>
<path fill="#52AF57" opacity="1.000000" stroke="none" 
	d="
M102.067459,31.641199 
	C101.875343,31.748920 101.571976,31.619898 101.134628,31.277622 
	C101.319160,31.177732 101.637695,31.291094 102.067459,31.641199 
z"/>
<path fill="#FAFAFA" opacity="1.000000" stroke="none" 
	d="
M251.269760,77.237122 
	C250.714249,68.637520 253.421066,64.341553 259.268890,63.948601 
	C263.977173,63.632214 267.915375,66.650467 268.924561,71.348717 
	C270.012421,76.413071 267.276245,82.291931 263.110291,83.841087 
	C258.716400,85.474998 254.677933,83.704300 252.028824,78.970963 
	C251.787643,78.540039 251.607147,78.075150 251.269760,77.237122 
z"/>
<path fill="#F8F8F8" opacity="1.000000" stroke="none" 
	d="
M536.386169,67.500519 
	C540.540771,63.552696 545.260498,62.823093 548.644409,65.328636 
	C552.444336,68.142204 553.772217,74.128075 551.645081,78.855568 
	C549.710754,83.154839 545.584351,85.155251 541.029907,84.001778 
	C535.100037,82.499977 532.888245,75.153763 536.386169,67.500519 
z"/>
<path fill="#F0EFED" opacity="1.000000" stroke="none" 
	d="
M433.335999,64.863953 
	C434.434448,66.287056 435.188721,67.463791 436.497314,69.505371 
	C430.476776,69.505371 425.469604,69.505371 420.486725,69.505371 
	C421.478424,63.362461 426.149292,61.441185 433.335999,64.863953 
z"/>
<path fill="#F4F3F1" opacity="1.000000" stroke="none" 
	d="
M329.119629,69.947037 
	C327.171356,69.946732 325.690277,69.946732 323.563538,69.946732 
	C324.289398,65.386276 326.906525,63.353630 330.843292,63.113686 
	C335.062195,62.856544 338.109924,64.610352 339.140747,69.947350 
	C335.695312,69.947350 332.641052,69.947350 329.119629,69.947037 
z"/>
<path fill="#F8F8F8" opacity="1.000000" stroke="none" 
	d="
M744.340698,81.347076 
	C740.823730,85.087105 737.009460,85.170349 733.262695,82.882828 
	C729.533630,80.606071 728.226257,73.506111 730.342834,68.776398 
	C732.171082,64.691185 735.464111,63.368382 739.725220,64.009293 
	C744.054199,64.660400 746.925903,68.252228 746.626282,73.478462 
	C746.480042,76.029007 745.303040,78.520439 744.340698,81.347076 
z"/>
<path fill="#4BB34A" opacity="1.000000" stroke="none" 
	d="
M514.064697,92.522217 
	C510.928619,93.280792 507.772888,93.790245 504.636292,93.691444 
	C504.057037,93.673203 503.555237,91.196159 503.037292,89.421036 
	C504.019165,87.697144 505.363312,86.539230 505.868591,85.089043 
	C507.132721,81.461029 509.652222,80.540955 513.493530,81.005066 
	C513.949646,84.694061 514.000610,88.378777 514.064697,92.522217 
z"/>
<path fill="#58B05B" opacity="1.000000" stroke="none" 
	d="
M513.546143,65.992020 
	C513.945679,67.064438 513.955261,68.143784 513.709961,69.614273 
	C513.455017,70.005432 513.000000,69.999695 513.000000,69.999695 
	C511.735870,69.375526 510.471710,68.751373 509.207581,68.127213 
	C510.523773,67.417786 511.839966,66.708359 513.546143,65.992020 
z"/>
<path fill="#4BB34A" opacity="1.000000" stroke="none" 
	d="
M513.000122,70.401237 
	C513.000000,69.999695 513.455017,70.005432 513.681519,70.017937 
	C513.931519,71.725189 513.955139,73.419945 513.955383,75.536224 
	C513.621399,74.239441 513.310791,72.521111 513.000122,70.401237 
z"/>
</svg>